<?xml version="1.0" encoding="utf-8"?>
<!-- Generator: Adobe Illustrator 15.0.0, SVG Export Plug-In . SVG Version: 6.00 Build 0)  -->
<!DOCTYPE svg PUBLIC "-//W3C//DTD SVG 1.1//EN" "http://www.w3.org/Graphics/SVG/1.1/DTD/svg11.dtd">
<svg version="1.1" id="Calque_1" xmlns="http://www.w3.org/2000/svg" xmlns:xlink="http://www.w3.org/1999/xlink" x="0px" y="0px"
	 width="252.001px" height="144px" viewBox="0 0 252.001 144" enable-background="new 0 0 252.001 144" xml:space="preserve">
<path fill-rule="evenodd" clip-rule="evenodd" fill="#045DA5" d="M161.041,24.48c-0.08-5.12-0.16-10.24-0.24-15.36
	c-3.439-1.52-6.88-3.04-10.32-4.56c0,5.439,0,10.88,0,16.32c-3.957-1.498-24.347-8.624-24.347-8.624
	c-9.919,11.839-20.455,24.146-30.374,35.984c3.2-1.297,8.124-3.84,8.124-3.84L121.2,25.2c1.6-1.92,3.2-3.84,4.8-5.76
	c0.16,0,0.32,0,0.48,0c2,2.72,4,5.44,6,8.16c6.719,8.639,13.441,17.281,20.16,25.92c10.719-4,21.441-8,32.16-12
	c-2.197-4.528-4.384-7.936-5.634-10.8L161.041,24.48z M154.02,51.306c-8.239-11.599-16.661-23.627-24.899-35.226
	c2.531,0.542,3.877,1.191,3.877,1.191s17.563,24.729,23.723,33.129C155.526,50.788,154.02,51.306,154.02,51.306z"/>
<path fill-rule="evenodd" clip-rule="evenodd" fill="#707072" d="M118.8,38.16c1.68,0,3.36,0,5.04,0c0-2.48,0-4.96,0-7.44
	C120.344,31.267,118.656,33.938,118.8,38.16z"/>
<path fill-rule="evenodd" clip-rule="evenodd" fill="#707072" d="M126,38.16c1.6,0,3.2,0,4.8,0c0.123-4.413-1.51-6.227-4.56-7.44
	c-0.08,0-0.16,0-0.24,0C126,33.2,126,35.68,126,38.16z"/>
<path fill-rule="evenodd" clip-rule="evenodd" fill="#707072" d="M118.8,48.48c1.68,0,3.36,0,5.04,0c0-2.72,0-5.44,0-8.16h-5.04
	C118.8,42.96,118.8,45.84,118.8,48.48z"/>
<path fill-rule="evenodd" clip-rule="evenodd" fill="#707072" d="M126,40.32c0,2.72,0,5.44,0,8.16c1.6,0,3.2,0,4.8,0
	c0-2.72,0-5.44,0-8.16C129.201,40.32,127.6,40.32,126,40.32z"/>
<path fill-rule="evenodd" clip-rule="evenodd" fill="#045DA5" d="M194.161,42.48c-20.558,7.839-41.122,15.681-61.68,23.52
	c0.96,0.96,1.92,1.92,2.88,2.88c3.2,3.359,6.4,6.72,9.6,10.08c0.16,0,0.32,0,0.48,0l33.05-27.902c0,0,2.567-0.344,3.91-0.658
	c-11.438,9.919-22.881,19.841-34.32,29.76l7.543-0.14c0,0,28.458-23.541,37.097-30.58c11.039,11.679,22.081,23.361,33.12,35.04
	c0,0,7.2,0.08,7.2,0c-0.64-0.64-1.28-1.28-1.92-1.92c-12.079-13.358-24.161-26.721-36.24-40.08
	C194.641,42.48,194.4,42.48,194.161,42.48z"/>
<path fill-rule="evenodd" clip-rule="evenodd" fill="#045DA5" d="M144,83.041c-11.839-12.719-23.681-25.441-35.52-38.16
	c-8.799,3.759-17.601,7.52-26.4,11.28c0-5.6,0-11.201,0-16.8c-0.24,0-0.48,0-0.72,0c-3.36,1.36-6.72,2.72-10.08,4.081
	c0,5.759,0,11.521,0,17.28c-4.479,1.92-8.96,3.84-13.44,5.76C46.961,81.359,36.079,96.242,25.2,111.121
	C51.977,91.254,76,86.24,78.24,85.68l29.176-34.84c10.159,10.879,20.665,22.042,30.824,32.92l6.499-0.037
	C144.42,83.403,144.32,83.36,144,83.041z M83.76,73.68c-2.727,3.497-8.266,10.519-8.266,10.519L70.32,86.16
	c9.519-11.599,19.041-23.201,28.56-34.8c1.6-0.8,3.2-1.6,4.8-2.4c0.16,0,0.32,0,0.48,0C97.361,57.199,90.56,65.441,83.76,73.68z"/>
<path fill-rule="evenodd" clip-rule="evenodd" fill="#707072" d="M103.2,69.12c1.68,0,3.36,0,5.04,0c0-2.56,0-5.12,0-7.68
	C104.889,62.665,103.118,64.461,103.2,69.12z"/>
<path fill-rule="evenodd" clip-rule="evenodd" fill="#707072" d="M110.4,69.12c1.6,0,3.2,0,4.8,0c0.19-4.184-1.283-7.026-4.8-7.44
	C110.4,64.16,110.4,66.641,110.4,69.12z"/>
<path fill-rule="evenodd" clip-rule="evenodd" fill="#707072" d="M187.681,69.84c1.68,0,3.36,0,5.04,0c0-2.56,0-5.12,0-7.68
	C189.119,62.727,187.501,65.429,187.681,69.84z"/>
<path fill-rule="evenodd" clip-rule="evenodd" fill="#707072" d="M195.121,69.84c1.6,0,3.2,0,4.8,0
	c0.178-4.516-1.377-6.821-4.8-7.68C195.121,64.72,195.121,67.28,195.121,69.84z"/>
<path fill-rule="evenodd" clip-rule="evenodd" fill="#707072" d="M103.2,71.28c0,2.64,0,5.28,0,7.92c1.68,0,3.36,0,5.04,0
	c0-2.64,0-5.28,0-7.92C106.561,71.28,104.88,71.28,103.2,71.28z"/>
<path fill-rule="evenodd" clip-rule="evenodd" fill="#707072" d="M110.4,71.28c0,2.64,0,5.28,0,7.92c1.6,0,3.2,0,4.8,0
	c0-2.64,0-5.28,0-7.92C113.601,71.28,112,71.28,110.4,71.28z"/>
<path fill-rule="evenodd" clip-rule="evenodd" fill="#707072" d="M187.681,72.24c0,2.8,0,5.601,0,8.4c1.68,0,3.36,0,5.04,0
	c0-2.799,0-5.6,0-8.4C191.041,72.24,189.36,72.24,187.681,72.24z"/>
<path fill-rule="evenodd" clip-rule="evenodd" fill="#707072" d="M195.121,72.24c0,2.8,0,5.601,0,8.4c1.6,0,3.2,0,4.8,0
	c0-2.799,0-5.6,0-8.4C198.321,72.24,196.721,72.24,195.121,72.24z"/>
<path fill-rule="evenodd" clip-rule="evenodd" fill="#229CD3" d="M105.121,85.44c-3.2,0.32-6.4,0.64-9.6,0.96
	c-8.216,1.666-16.438,2.985-23.76,5.76c-16.59,6.287-30.714,14.207-43.68,24c-4.399,3.92-8.8,7.841-13.2,11.76
	c-4.56,4.56-9.12,9.121-13.68,13.68c5.839-4.72,11.68-9.44,17.52-14.16c15.06-10.761,30.795-19.872,52.56-24
	c9.631-1.827,42.467-6.502,36.48,9.12c-1.36,2.479-2.72,4.96-4.08,7.44c6.079-3.524,27.349-15.148,52.154-21.417
	c23.083-5.833,47.191-3.847,51.456-3.503c19.114,1.539,39.27,7.705,43.543,9.17c-2.885-1.833-12.869-6.149-19.917-8.917
	c-19.23-7.551-47.912-11.372-74.196-6.293c-11.855,2.29-22.979,5.082-33.84,7.68C126.206,86.652,113.942,85.214,105.121,85.44z"/>
<path fill-rule="evenodd" clip-rule="evenodd" fill="none" stroke="#E20077" stroke-width="0.1" stroke-miterlimit="10" d="
	M111.767,43.395"/>
<path fill-rule="evenodd" clip-rule="evenodd" fill="none" stroke="#E20077" stroke-width="0.1" stroke-miterlimit="10" d="
	M155.834,78.998"/>
</svg>
